<?xml version="1.0" encoding="UTF-8" standalone="no"?>
<!DOCTYPE svg PUBLIC "-//W3C//DTD SVG 20010904//EN"
              "http://www.w3.org/TR/2001/REC-SVG-20010904/DTD/svg10.dtd">

<svg xmlns="http://www.w3.org/2000/svg"
     width="1.66667in" height="1.28889in"
     viewBox="0 0 150 116">
  <path id="forSale_149_"
        fill="none" stroke="black" stroke-width="1"
        d="M 114.98,41.86
           C 114.98,41.86 112.07,40.37 112.07,40.37
             112.07,40.37 109.16,41.86 109.16,41.86
             109.06,41.86 108.96,41.86 108.96,41.76
             108.96,41.76 109.57,38.57 109.57,38.57
             109.57,38.57 107.26,36.27 107.26,36.27
             107.16,36.17 107.26,36.07 107.36,36.07
             107.36,36.07 110.57,35.57 110.57,35.57
             110.57,35.57 112.07,32.67 112.07,32.67
             112.07,32.57 112.27,32.57 112.27,32.67
             112.27,32.67 113.68,35.57 113.68,35.57
             113.68,35.57 116.89,36.07 116.89,36.07
             116.99,36.07 116.99,36.17 116.99,36.27
             116.99,36.27 114.58,38.57 114.58,38.57
             114.58,38.57 114.98,41.86 114.98,41.86
             115.18,41.86 115.08,41.96 114.98,41.86 Z" />
</svg>
