<?xml version="1.0" encoding="UTF-8" standalone="no"?>
<!DOCTYPE svg PUBLIC "-//W3C//DTD SVG 20010904//EN"
              "http://www.w3.org/TR/2001/REC-SVG-20010904/DTD/svg10.dtd">

<svg xmlns="http://www.w3.org/2000/svg"
     width="1.66667in" height="1.28889in"
     viewBox="0 0 150 116">
  <path id="Selection #3"
        fill="none" stroke="black" stroke-width="1"
        d="M 122.00,116.00
           C 122.00,116.00 122.00,91.00 122.00,91.00
             122.00,91.00 141.00,91.00 141.00,91.00
             150.21,90.94 149.88,86.82 150.00,77.00
             150.17,61.77 147.05,50.32 139.69,37.00
             127.84,15.56 105.76,3.38 82.00,0.84
             78.39,0.45 76.87,-0.15 73.00,0.17
             64.47,0.88 56.05,2.22 48.00,5.23
             18.93,16.09 -0.04,44.16 0.00,75.00
             0.01,85.49 2.14,95.34 6.23,105.00
             7.36,107.66 10.00,113.46 12.39,114.98
             14.35,116.22 17.72,116.00 20.00,116.00
             20.00,116.00 122.00,116.00 122.00,116.00 Z
           M 0.00,0.00
           C 0.00,0.00 0.00,116.00 0.00,116.00
             0.00,116.00 150.00,116.00 150.00,116.00
             150.00,116.00 150.00,0.00 150.00,0.00
             150.00,0.00 0.00,0.00 0.00,0.00 Z
           M 71.00,0.42
           C 58.81,2.16 52.56,2.48 41.00,8.27
             15.68,20.96 -0.03,46.82 0.00,75.00
             0.01,85.49 2.14,95.34 6.23,105.00
             7.36,107.66 10.00,113.46 12.39,114.98
             14.35,116.22 17.72,116.00 20.00,116.00
             20.00,116.00 130.00,116.00 130.00,116.00
             132.28,116.00 135.65,116.22 137.61,114.98
             140.02,113.45 142.62,107.67 143.77,105.00
             147.71,95.86 149.96,85.97 150.00,76.00
             150.15,42.02 128.89,12.75 96.00,3.30
             89.42,1.41 77.72,-0.37 71.00,0.42 Z
           M 71.00,0.42
           C 58.81,2.16 52.56,2.48 41.00,8.27
             15.68,20.96 -0.03,46.82 0.00,75.00
             0.01,85.49 2.14,95.34 6.23,105.00
             7.36,107.66 10.00,113.46 12.39,114.98
             14.35,116.22 17.72,116.00 20.00,116.00
             20.00,116.00 130.00,116.00 130.00,116.00
             132.28,116.00 135.65,116.22 137.61,114.98
             140.02,113.45 142.62,107.67 143.77,105.00
             147.71,95.86 149.96,85.97 150.00,76.00
             150.15,42.02 128.89,12.75 96.00,3.30
             89.42,1.41 77.72,-0.37 71.00,0.42 Z
           M 71.00,0.42
           C 58.81,2.16 52.56,2.48 41.00,8.27
             15.68,20.96 -0.03,46.82 0.00,75.00
             0.01,85.49 2.14,95.34 6.23,105.00
             7.36,107.66 10.00,113.46 12.39,114.98
             14.35,116.22 17.72,116.00 20.00,116.00
             20.00,116.00 130.00,116.00 130.00,116.00
             132.28,116.00 135.65,116.22 137.61,114.98
             140.02,113.45 142.62,107.67 143.77,105.00
             147.71,95.86 149.96,85.97 150.00,76.00
             150.15,42.02 128.89,12.75 96.00,3.30
             89.42,1.41 77.72,-0.37 71.00,0.42 Z
           M 75.05,0.40
           C 33.61,0.40 0.00,33.87 0.00,75.04
             0.00,90.02 4.52,104.01 12.14,115.80
             12.14,115.80 137.86,115.80 137.86,115.80
             145.48,104.11 150.00,90.12 150.00,75.04
             150.00,33.87 116.39,0.40 75.05,0.40 Z
           M 80.17,65.84
           C 80.17,65.84 19.67,65.84 19.67,65.84
             19.67,65.84 14.45,73.04 14.45,73.04
             14.45,73.04 85.28,73.04 85.28,73.04
             85.28,73.04 80.17,65.84 80.17,65.84 Z
           M 85.28,73.04
           C 85.28,73.04 80.17,65.84 80.17,65.84
             80.17,65.84 19.67,65.84 19.67,65.84
             19.67,65.84 14.45,73.04 14.45,73.04M 65.82,72.94
           C 65.82,72.94 34.01,72.94 34.01,72.94
             34.01,72.94 14.55,72.94 14.55,72.94
             14.55,72.94 14.55,115.40 14.55,115.40
             14.55,115.40 85.18,115.40 85.18,115.40
             85.18,115.40 85.18,72.94 85.18,72.94
             85.18,72.94 65.82,72.94 65.82,72.94 Z
           M 22.68,78.03
           C 22.68,78.03 22.68,84.13 22.68,84.13
             22.68,84.13 18.26,84.13 18.26,84.13
             18.26,84.13 18.26,78.03 18.26,78.03
             18.26,78.03 22.68,78.03 22.68,78.03 Z
           M 29.60,78.03
           C 29.60,78.03 29.60,84.13 29.60,84.13
             29.60,84.13 25.18,84.13 25.18,84.13
             25.18,84.13 25.18,78.03 25.18,78.03
             25.18,78.03 29.60,78.03 29.60,78.03 Z
           M 22.68,86.83
           C 22.68,86.83 22.68,92.92 22.68,92.92
             22.68,92.92 18.26,92.92 18.26,92.92
             18.26,92.92 18.26,86.83 18.26,86.83
             18.26,86.83 22.68,86.83 22.68,86.83 Z
           M 29.60,86.83
           C 29.60,86.83 29.60,92.92 29.60,92.92
             29.60,92.92 25.18,92.92 25.18,92.92
             25.18,92.92 25.18,86.83 25.18,86.83
             25.18,86.83 29.60,86.83 29.60,86.83 Z
           M 22.68,95.62
           C 22.68,95.62 22.68,101.71 22.68,101.71
             22.68,101.71 18.26,101.71 18.26,101.71
             18.26,101.71 18.26,95.62 18.26,95.62
             18.26,95.62 22.68,95.62 22.68,95.62 Z
           M 29.60,95.62
           C 29.60,95.62 29.60,101.71 29.60,101.71
             29.60,101.71 25.18,101.71 25.18,101.71
             25.18,101.71 25.18,95.62 25.18,95.62
             25.18,95.62 29.60,95.62 29.60,95.62 Z
           M 71.84,73.94
           C 71.84,73.94 71.84,76.53 71.84,76.53
             71.84,76.53 14.95,76.53 14.95,76.53
             14.95,76.53 14.95,73.94 14.95,73.94
             14.95,73.94 71.84,73.94 71.84,73.94 Z
           M 71.74,72.74
           C 71.74,72.74 71.74,75.34 71.74,75.34
             71.74,75.34 13.55,75.34 13.55,75.34
             13.55,75.34 13.55,72.74 13.55,72.74
             13.55,72.74 71.74,72.74 71.74,72.74 Z
           M 71.74,72.74
           C 71.74,72.74 71.74,75.34 71.74,75.34
             71.74,75.34 13.55,75.34 13.55,75.34
             13.55,75.34 13.55,72.74 13.55,72.74
             13.55,72.74 71.74,72.74 71.74,72.74 Z
           M 37.53,76.53
           C 37.53,76.53 37.53,115.40 37.53,115.40
             37.53,115.40 31.61,115.40 31.61,115.40
             31.61,115.40 31.61,76.53 31.61,76.53
             31.61,76.53 37.53,76.53 37.53,76.53 Z
           M 67.02,61.35
           C 67.02,61.35 67.02,115.00 67.02,115.00
             67.02,115.00 33.31,115.00 33.31,115.00
             33.31,115.00 33.31,61.35 33.31,61.35
             33.31,61.35 67.02,61.35 67.02,61.35 Z
           M 66.92,61.75
           C 66.92,61.75 66.92,115.40 66.92,115.40
             66.92,115.40 33.21,115.40 33.21,115.40
             33.21,115.40 33.21,61.75 33.21,61.75
             33.21,61.75 66.92,61.75 66.92,61.75 Z
           M 66.62,61.55
           C 66.62,61.55 66.62,64.64 66.62,64.64
             66.62,64.64 33.61,64.64 33.61,64.64
             33.61,64.64 33.61,61.55 33.61,61.55
             33.61,61.55 66.62,61.55 66.62,61.55 Z
           M 68.63,60.05
           C 68.63,60.05 68.63,63.15 68.63,63.15
             68.63,63.15 31.61,63.15 31.61,63.15
             31.61,63.15 31.61,60.05 31.61,60.05
             31.61,60.05 68.63,60.05 68.63,60.05 Z
           M 65.32,63.15
           C 65.32,63.15 31.61,63.15 31.61,63.15
             31.61,63.15 31.61,60.05 31.61,60.05
             31.61,60.05 64.52,60.05 64.52,60.05M 48.16,66.94
           C 48.16,66.94 48.16,76.13 48.16,76.13
             48.16,76.13 43.75,76.13 43.75,76.13
             43.75,76.13 43.75,66.94 43.75,66.94
             43.75,66.94 48.16,66.94 48.16,66.94 Z
           M 56.39,67.04
           C 56.39,67.04 56.39,76.23 56.39,76.23
             56.39,76.23 51.97,76.23 51.97,76.23
             51.97,76.23 51.97,67.04 51.97,67.04
             51.97,67.04 56.39,67.04 56.39,67.04 Z
           M 48.16,79.03
           C 48.16,79.03 48.16,88.22 48.16,88.22
             48.16,88.22 43.75,88.22 43.75,88.22
             43.75,88.22 43.75,79.03 43.75,79.03
             43.75,79.03 48.16,79.03 48.16,79.03 Z
           M 56.39,79.03
           C 56.39,79.03 56.39,88.22 56.39,88.22
             56.39,88.22 51.97,88.22 51.97,88.22
             51.97,88.22 51.97,79.03 51.97,79.03
             51.97,79.03 56.39,79.03 56.39,79.03 Z
           M 39.93,78.93
           C 39.93,78.93 39.93,88.12 39.93,88.12
             39.93,88.12 35.52,88.12 35.52,88.12
             35.52,88.12 35.52,78.93 35.52,78.93
             35.52,78.93 39.93,78.93 39.93,78.93 Z
           M 39.73,66.94
           C 39.73,66.94 39.73,76.13 39.73,76.13
             39.73,76.13 35.32,76.13 35.32,76.13
             35.32,76.13 35.32,66.94 35.32,66.94
             35.32,66.94 39.73,66.94 39.73,66.94 Z
           M 64.72,67.04
           C 64.72,67.04 64.72,76.23 64.72,76.23
             64.72,76.23 60.30,76.23 60.30,76.23
             60.30,76.23 60.30,67.04 60.30,67.04
             60.30,67.04 64.72,67.04 64.72,67.04 Z
           M 64.62,78.93
           C 64.62,78.93 64.62,88.12 64.62,88.12
             64.62,88.12 60.20,88.12 60.20,88.12
             60.20,88.12 60.20,78.93 60.20,78.93
             60.20,78.93 64.62,78.93 64.62,78.93 Z
           M 55.89,115.20
           C 55.89,115.20 44.55,115.20 44.55,115.20
             44.55,115.20 44.55,107.11 44.55,107.11
             44.55,104.01 47.06,101.51 50.17,101.51
             50.17,101.51 50.17,101.51 50.17,101.51
             53.28,101.51 55.79,104.01 55.79,107.11
             55.79,107.11 55.79,115.20 55.79,115.20
             55.79,115.20 55.89,115.20 55.89,115.20 Z
           M 55.89,115.20
           C 55.89,115.20 44.55,115.20 44.55,115.20
             44.55,115.20 44.55,107.11 44.55,107.11
             44.55,104.01 47.06,101.51 50.17,101.51
             50.17,101.51 50.17,101.51 50.17,101.51
             53.28,101.51 55.79,104.01 55.79,107.11
             55.79,107.11 55.79,115.20 55.79,115.20
             55.79,115.20 55.89,115.20 55.89,115.20 Z
           M 50.17,101.81
           C 50.17,101.81 50.17,115.20 50.17,115.20M 39.33,64.64
           C 39.33,64.64 39.33,115.50 39.33,115.50
             39.33,115.50 36.32,115.50 36.32,115.50
             36.32,115.50 36.32,64.64 36.32,64.64
             36.32,64.64 39.33,64.64 39.33,64.64 Z
           M 63.81,64.64
           C 63.81,64.64 63.81,115.50 63.81,115.50
             63.81,115.50 60.70,115.50 60.70,115.50
             60.70,115.50 60.70,64.64 60.70,64.64
             60.70,64.64 63.81,64.64 63.81,64.64 Z
           M 41.64,63.15
           C 41.64,63.15 41.64,115.50 41.64,115.50
             41.64,115.50 37.53,115.50 37.53,115.50
             37.53,115.50 37.53,63.15 37.53,63.15
             37.53,63.15 41.64,63.15 41.64,63.15 Z
           M 41.24,63.15
           C 41.24,63.15 41.24,115.50 41.24,115.50
             41.24,115.50 40.13,115.50 40.13,115.50
             40.13,115.50 40.13,63.15 40.13,63.15
             40.13,63.15 41.24,63.15 41.24,63.15 Z
           M 41.64,63.15
           C 41.64,63.15 41.64,115.50 41.64,115.50
             41.64,115.50 37.53,115.50 37.53,115.50
             37.53,115.50 37.53,63.15 37.53,63.15
             37.53,63.15 41.64,63.15 41.64,63.15 Z
           M 62.61,63.15
           C 62.61,63.15 62.61,115.50 62.61,115.50
             62.61,115.50 58.49,115.50 58.49,115.50
             58.49,115.50 58.49,63.15 58.49,63.15
             58.49,63.15 62.61,63.15 62.61,63.15 Z
           M 59.80,63.15
           C 59.80,63.15 59.80,115.50 59.80,115.50
             59.80,115.50 58.49,115.50 58.49,115.50
             58.49,115.50 58.49,63.15 58.49,63.15
             58.49,63.15 59.80,63.15 59.80,63.15 Z
           M 62.61,63.15
           C 62.61,63.15 62.61,115.50 62.61,115.50
             62.61,115.50 58.49,115.50 58.49,115.50
             58.49,115.50 58.49,63.15 58.49,63.15
             58.49,63.15 62.61,63.15 62.61,63.15 Z
           M 71.14,60.35
           C 71.14,60.35 29.30,60.35 29.30,60.35
             29.30,60.35 50.17,45.16 50.17,45.16
             50.17,45.16 71.14,60.35 71.14,60.35 Z
           M 65.32,60.35
           C 65.32,60.35 29.30,60.35 29.30,60.35
             29.30,60.35 50.17,45.16 50.17,45.16
             50.17,45.16 65.72,56.45 65.72,56.45M 23.18,101.71
           C 23.18,101.71 17.66,101.71 17.66,101.71M 30.10,101.71
           C 30.10,101.71 24.58,101.71 24.58,101.71M 23.18,92.92
           C 23.18,92.92 17.66,92.92 17.66,92.92M 30.10,92.92
           C 30.10,92.92 24.58,92.92 24.58,92.92M 23.18,84.03
           C 23.18,84.03 17.66,84.03 17.66,84.03M 30.10,84.03
           C 30.10,84.03 24.58,84.03 24.58,84.03M 48.56,88.22
           C 48.56,88.22 43.14,88.22 43.14,88.22M 57.19,88.22
           C 57.19,88.22 51.67,88.22 51.67,88.22M 48.56,76.13
           C 48.56,76.13 43.14,76.13 43.14,76.13M 36.92,76.13
           C 36.92,76.13 34.82,76.13 34.82,76.13M 99.00,33.00
           C 99.00,33.00 95.00,36.00 95.00,36.00
             95.00,36.00 96.00,42.00 96.00,42.00
             96.00,42.00 102.00,42.00 102.00,42.00
             102.00,42.00 104.00,36.00 104.00,36.00
             104.00,36.00 99.00,33.00 99.00,33.00 Z
           M 112.00,33.00
           C 112.00,33.00 108.00,36.00 108.00,36.00
             108.00,36.00 109.00,42.00 109.00,42.00
             109.00,42.00 115.00,42.00 115.00,42.00
             115.00,42.00 117.00,36.00 117.00,36.00
             117.00,36.00 112.00,33.00 112.00,33.00 Z
           M 72.00,96.00
           C 72.00,96.00 72.00,110.00 72.00,110.00
             72.00,110.00 78.00,110.00 78.00,110.00
             78.00,110.00 78.00,96.00 78.00,96.00
             78.00,96.00 72.00,96.00 72.00,96.00 Z
           M 86.00,97.00
           C 86.00,97.00 86.00,115.00 86.00,115.00
             86.00,115.00 99.00,115.00 99.00,115.00
             99.00,115.00 99.00,97.00 99.00,97.00
             99.00,97.00 86.00,97.00 86.00,97.00 Z
           M 36.92,88.12
           C 36.92,88.12 34.82,88.12 34.82,88.12M 57.19,76.13
           C 57.19,76.13 51.67,76.13 51.67,76.13M 120.10,20.48
           C 120.10,20.48 120.10,20.48 120.10,20.48
             119.50,18.78 117.89,17.48 115.99,17.48
             115.18,17.48 114.38,17.68 113.78,18.18
             113.38,15.49 111.07,13.39 108.16,13.39
             105.65,13.39 103.44,15.09 102.74,17.39
             102.44,17.29 102.04,17.29 101.74,17.29
             99.83,17.29 98.23,18.68 97.93,20.58
             97.93,20.58 97.32,20.58 97.32,20.58
             95.72,20.58 94.41,21.88 94.41,23.48
             94.41,23.48 94.41,23.68 94.41,23.68
             94.41,25.28 95.72,26.58 97.32,26.58
             97.32,26.58 120.10,26.58 120.10,26.58
             121.71,26.58 123.01,25.28 123.01,23.68
             123.01,23.68 123.01,23.48 123.01,23.48
             123.01,21.78 121.71,20.48 120.10,20.48 Z
           M 101.34,26.38
           C 101.34,26.38 97.32,26.38 97.32,26.38
             95.72,26.38 94.41,25.08 94.41,23.48
             94.41,23.48 94.41,23.28 94.41,23.28
             94.41,21.68 95.72,20.38 97.32,20.38
             97.32,20.38 97.93,20.38 97.93,20.38
             98.23,18.58 99.83,17.09 101.74,17.09
             102.04,17.09 102.44,17.19 102.74,17.19
             103.44,14.89 105.65,13.19 108.16,13.19
             110.97,13.19 113.28,15.29 113.78,17.98
             114.38,17.58 115.18,17.29 115.99,17.29
             117.89,17.29 119.50,18.58 120.00,20.28
             120.00,20.28 120.10,20.28 120.10,20.28
             121.71,20.28 123.01,21.58 123.01,23.18
             123.01,23.18 123.01,23.38 123.01,23.38
             123.01,24.98 121.71,26.28 120.10,26.28
             120.10,26.28 115.69,26.28 115.69,26.28
             115.69,26.28 101.34,26.28 101.34,26.28
             101.34,26.28 101.34,26.38 101.34,26.38 Z
           M 66.02,5.10
           C 66.02,5.10 66.02,5.10 66.02,5.10
             65.62,3.90 64.41,3.00 63.11,3.00
             62.51,3.00 62.01,3.20 61.51,3.50
             61.20,1.60 59.50,0.10 57.49,0.10
             55.69,0.10 54.18,1.30 53.68,2.90
             53.48,2.80 53.18,2.80 52.98,2.80
             51.57,2.80 50.47,3.80 50.27,5.10
             50.27,5.10 49.77,5.10 49.77,5.10
             48.66,5.10 47.66,5.99 47.66,7.19
             47.66,7.19 47.66,7.39 47.66,7.39
             47.66,8.49 48.56,9.49 49.77,9.49
             49.77,9.49 66.02,9.49 66.02,9.49
             67.12,9.49 68.13,8.59 68.13,7.39
             68.13,7.39 68.13,7.09 68.13,7.09
             68.13,5.99 67.22,5.10 66.02,5.10 Z
           M 52.68,9.29
           C 52.68,9.29 49.77,9.29 49.77,9.29
             48.66,9.29 47.66,8.39 47.66,7.19
             47.66,7.19 47.66,7.09 47.66,7.09
             47.66,5.99 48.56,5.00 49.77,5.00
             49.77,5.00 50.27,5.00 50.27,5.00
             50.47,3.70 51.57,2.70 52.98,2.70
             53.18,2.70 53.48,2.70 53.68,2.80
             54.18,1.20 55.69,0.00 57.59,0.00
             59.60,0.00 61.30,1.50 61.61,3.40
             62.11,3.10 62.61,2.90 63.21,2.90
             64.52,2.90 65.72,3.80 66.02,5.00
             66.02,5.00 66.12,5.00 66.12,5.00
             67.22,5.00 68.23,5.89 68.23,7.09
             68.23,7.09 68.23,7.29 68.23,7.29
             68.23,8.39 67.32,9.39 66.12,9.39
             66.12,9.39 63.01,9.39 63.01,9.39
             63.01,9.39 52.68,9.29 52.68,9.29
             52.68,9.29 52.68,9.29 52.68,9.29 Z
           M 148.29,33.47
           C 148.29,33.47 148.29,33.47 148.29,33.47
             147.99,32.67 147.29,32.17 146.49,32.17
             146.09,32.17 145.79,32.27 145.48,32.47
             145.28,31.27 144.28,30.27 142.98,30.27
             141.87,30.27 140.87,31.07 140.57,32.07
             140.47,32.07 140.27,31.97 140.07,31.97
             139.16,31.97 138.46,32.57 138.36,33.47
             138.36,33.47 138.06,33.47 138.06,33.47
             137.36,33.47 136.76,34.07 136.76,34.77
             136.76,34.77 136.76,34.87 136.76,34.87
             136.76,35.57 137.36,36.17 138.06,36.17
             138.06,36.17 148.39,36.17 148.39,36.17
             149.10,36.17 149.70,35.57 149.70,34.87
             149.70,34.87 149.70,34.77 149.70,34.77
             149.60,34.07 149.00,33.47 148.29,33.47 Z
           M 139.77,36.27
           C 139.77,36.27 137.96,36.27 137.96,36.27
             137.26,36.27 136.66,35.67 136.66,34.97
             136.66,34.97 136.66,34.87 136.66,34.87
             136.66,34.17 137.26,33.57 137.96,33.57
             137.96,33.57 138.26,33.57 138.26,33.57
             138.36,32.77 139.16,32.07 139.97,32.07
             140.17,32.07 140.27,32.07 140.47,32.17
             140.77,31.17 141.77,30.37 142.88,30.37
             144.18,30.37 145.18,31.27 145.38,32.57
             145.69,32.37 145.99,32.27 146.39,32.27
             147.29,32.27 147.99,32.87 148.19,33.57
             148.19,33.57 148.29,33.57 148.29,33.57
             149.00,33.57 149.60,34.17 149.60,34.87
             149.60,34.87 149.60,34.97 149.60,34.97
             149.60,35.67 149.00,36.27 148.29,36.27
             148.29,36.27 146.29,36.27 146.29,36.27
             146.29,36.27 139.77,36.27 139.77,36.27 Z
           M 119.80,50.86
           C 119.80,50.86 119.80,115.70 119.80,115.70
             119.80,115.70 65.72,115.70 65.72,115.70
             65.72,115.70 65.72,50.86 65.72,50.86
             65.72,50.86 119.80,50.86 119.80,50.86 Z
           M 65.72,115.50
           C 65.72,115.50 65.72,50.86 65.72,50.86
             65.72,50.86 119.80,50.86 119.80,50.86
             119.80,50.86 119.80,115.70 119.80,115.70M 99.23,96.52
           C 99.23,96.52 99.23,115.40 99.23,115.40
             99.23,115.40 86.39,115.40 86.39,115.40
             86.39,115.40 86.39,96.52 86.39,96.52
             86.39,96.52 99.23,96.52 99.23,96.52 Z
           M 99.23,96.52
           C 99.23,96.52 99.23,115.40 99.23,115.40
             99.23,115.40 86.39,115.40 86.39,115.40
             86.39,115.40 86.39,96.52 86.39,96.52
             86.39,96.52 99.23,96.52 99.23,96.52 Z
           M 66.02,115.30
           C 66.02,115.30 120.20,115.30 120.20,115.30M 92.81,97.82
           C 92.81,97.82 92.81,114.00 92.81,114.00M 77.86,59.95
           C 77.86,59.95 77.86,66.24 77.86,66.24
             77.86,66.24 71.54,66.24 71.54,66.24
             71.54,66.24 71.54,59.95 71.54,59.95
             71.54,59.95 77.86,59.95 77.86,59.95 Z
           M 89.70,59.95
           C 89.70,59.95 89.70,66.24 89.70,66.24
             89.70,66.24 83.38,66.24 83.38,66.24
             83.38,66.24 83.38,59.95 83.38,59.95
             83.38,59.95 89.70,59.95 89.70,59.95 Z
           M 101.54,59.95
           C 101.54,59.95 101.54,66.24 101.54,66.24
             101.54,66.24 95.22,66.24 95.22,66.24
             95.22,66.24 95.22,59.95 95.22,59.95
             95.22,59.95 101.54,59.95 101.54,59.95 Z
           M 113.48,59.95
           C 113.48,59.95 113.48,66.24 113.48,66.24
             113.48,66.24 107.16,66.24 107.16,66.24
             107.16,66.24 107.16,59.95 107.16,59.95
             107.16,59.95 113.48,59.95 113.48,59.95 Z
           M 77.86,70.84
           C 77.86,70.84 77.86,77.13 77.86,77.13
             77.86,77.13 71.54,77.13 71.54,77.13
             71.54,77.13 71.54,70.84 71.54,70.84
             71.54,70.84 77.86,70.84 77.86,70.84 Z
           M 89.70,70.84
           C 89.70,70.84 89.70,77.13 89.70,77.13
             89.70,77.13 83.38,77.13 83.38,77.13
             83.38,77.13 83.38,70.84 83.38,70.84
             83.38,70.84 89.70,70.84 89.70,70.84 Z
           M 101.54,70.84
           C 101.54,70.84 101.54,77.13 101.54,77.13
             101.54,77.13 95.22,77.13 95.22,77.13
             95.22,77.13 95.22,70.84 95.22,70.84
             95.22,70.84 101.54,70.84 101.54,70.84 Z
           M 113.48,70.84
           C 113.48,70.84 113.48,77.13 113.48,77.13
             113.48,77.13 107.16,77.13 107.16,77.13
             107.16,77.13 107.16,70.84 107.16,70.84
             107.16,70.84 113.48,70.84 113.48,70.84 Z
           M 77.86,81.63
           C 77.86,81.63 77.86,87.92 77.86,87.92
             77.86,87.92 71.54,87.92 71.54,87.92
             71.54,87.92 71.54,81.63 71.54,81.63
             71.54,81.63 77.86,81.63 77.86,81.63 Z
           M 89.70,81.63
           C 89.70,81.63 89.70,87.92 89.70,87.92
             89.70,87.92 83.38,87.92 83.38,87.92
             83.38,87.92 83.38,81.63 83.38,81.63
             83.38,81.63 89.70,81.63 89.70,81.63 Z
           M 101.54,81.63
           C 101.54,81.63 101.54,87.92 101.54,87.92
             101.54,87.92 95.22,87.92 95.22,87.92
             95.22,87.92 95.22,81.63 95.22,81.63
             95.22,81.63 101.54,81.63 101.54,81.63 Z
           M 113.48,81.63
           C 113.48,81.63 113.48,87.92 113.48,87.92
             113.48,87.92 107.16,87.92 107.16,87.92
             107.16,87.92 107.16,81.63 107.16,81.63
             107.16,81.63 113.48,81.63 113.48,81.63 Z
           M 77.86,59.95
           C 77.86,59.95 77.86,66.24 77.86,66.24
             77.86,66.24 71.54,66.24 71.54,66.24
             71.54,66.24 71.54,59.95 71.54,59.95
             71.54,59.95 77.86,59.95 77.86,59.95 Z
           M 89.70,59.95
           C 89.70,59.95 89.70,66.24 89.70,66.24
             89.70,66.24 83.38,66.24 83.38,66.24
             83.38,66.24 83.38,59.95 83.38,59.95
             83.38,59.95 89.70,59.95 89.70,59.95 Z
           M 101.54,59.95
           C 101.54,59.95 101.54,66.24 101.54,66.24
             101.54,66.24 95.22,66.24 95.22,66.24
             95.22,66.24 95.22,59.95 95.22,59.95
             95.22,59.95 101.54,59.95 101.54,59.95 Z
           M 113.48,59.95
           C 113.48,59.95 113.48,66.24 113.48,66.24
             113.48,66.24 107.16,66.24 107.16,66.24
             107.16,66.24 107.16,59.95 107.16,59.95
             107.16,59.95 113.48,59.95 113.48,59.95 Z
           M 77.86,70.84
           C 77.86,70.84 77.86,77.13 77.86,77.13
             77.86,77.13 71.54,77.13 71.54,77.13
             71.54,77.13 71.54,70.84 71.54,70.84
             71.54,70.84 77.86,70.84 77.86,70.84 Z
           M 89.70,70.84
           C 89.70,70.84 89.70,77.13 89.70,77.13
             89.70,77.13 83.38,77.13 83.38,77.13
             83.38,77.13 83.38,70.84 83.38,70.84
             83.38,70.84 89.70,70.84 89.70,70.84 Z
           M 101.54,70.84
           C 101.54,70.84 101.54,77.13 101.54,77.13
             101.54,77.13 95.22,77.13 95.22,77.13
             95.22,77.13 95.22,70.84 95.22,70.84
             95.22,70.84 101.54,70.84 101.54,70.84 Z
           M 113.48,70.84
           C 113.48,70.84 113.48,77.13 113.48,77.13
             113.48,77.13 107.16,77.13 107.16,77.13
             107.16,77.13 107.16,70.84 107.16,70.84
             107.16,70.84 113.48,70.84 113.48,70.84 Z
           M 77.86,81.63
           C 77.86,81.63 77.86,87.92 77.86,87.92
             77.86,87.92 71.54,87.92 71.54,87.92
             71.54,87.92 71.54,81.63 71.54,81.63
             71.54,81.63 77.86,81.63 77.86,81.63 Z
           M 77.86,96.42
           C 77.86,96.42 77.86,110.30 77.86,110.30
             77.86,110.30 71.54,110.30 71.54,110.30
             71.54,110.30 71.54,96.42 71.54,96.42
             71.54,96.42 77.86,96.42 77.86,96.42 Z
           M 113.48,96.42
           C 113.48,96.42 113.48,110.30 113.48,110.30
             113.48,110.30 107.16,110.30 107.16,110.30
             107.16,110.30 107.16,96.42 107.16,96.42
             107.16,96.42 113.48,96.42 113.48,96.42 Z
           M 77.86,96.42
           C 77.86,96.42 77.86,110.30 77.86,110.30
             77.86,110.30 71.54,110.30 71.54,110.30
             71.54,110.30 71.54,96.42 71.54,96.42
             71.54,96.42 77.86,96.42 77.86,96.42 Z
           M 113.48,96.42
           C 113.48,96.42 113.48,110.30 113.48,110.30
             113.48,110.30 107.16,110.30 107.16,110.30
             107.16,110.30 107.16,96.42 107.16,96.42
             107.16,96.42 113.48,96.42 113.48,96.42 Z
           M 89.70,81.63
           C 89.70,81.63 89.70,87.92 89.70,87.92
             89.70,87.92 83.38,87.92 83.38,87.92
             83.38,87.92 83.38,81.63 83.38,81.63
             83.38,81.63 89.70,81.63 89.70,81.63 Z
           M 101.54,81.63
           C 101.54,81.63 101.54,87.92 101.54,87.92
             101.54,87.92 95.22,87.92 95.22,87.92
             95.22,87.92 95.22,81.63 95.22,81.63
             95.22,81.63 101.54,81.63 101.54,81.63 Z
           M 113.48,81.63
           C 113.48,81.63 113.48,87.92 113.48,87.92
             113.48,87.92 107.16,87.92 107.16,87.92
             107.16,87.92 107.16,81.63 107.16,81.63
             107.16,81.63 113.48,81.63 113.48,81.63 Z
           M 122.01,45.26
           C 122.01,45.26 122.01,52.95 122.01,52.95
             122.01,52.95 63.51,52.95 63.51,52.95
             63.51,52.95 63.51,45.26 63.51,45.26
             63.51,45.26 122.01,45.26 122.01,45.26 Z
           M 121.51,52.95
           C 121.51,52.95 64.01,52.95 64.01,52.95
             63.71,52.95 63.51,52.75 63.51,52.45
             63.51,52.45 63.51,45.76 63.51,45.76
             63.51,45.46 63.71,45.26 64.01,45.26
             64.01,45.26 121.51,45.26 121.51,45.26
             121.81,45.26 122.01,45.46 122.01,45.76
             122.01,45.76 122.01,52.45 122.01,52.45
             122.01,52.75 121.81,52.95 121.51,52.95 Z
           M 75.75,41.86
           C 75.75,41.86 72.84,40.37 72.84,40.37
             72.84,40.37 69.93,41.86 69.93,41.86
             69.83,41.86 69.73,41.86 69.73,41.76
             69.73,41.76 70.33,38.57 70.33,38.57
             70.33,38.57 68.03,36.27 68.03,36.27
             67.93,36.17 68.03,36.07 68.13,36.07
             68.13,36.07 71.34,35.57 71.34,35.57
             71.34,35.57 72.84,32.67 72.84,32.67
             72.84,32.57 73.04,32.57 73.04,32.67
             73.04,32.67 74.45,35.57 74.45,35.57
             74.45,35.57 77.66,36.07 77.66,36.07
             77.76,36.07 77.76,36.17 77.76,36.27
             77.76,36.27 75.35,38.57 75.35,38.57
             75.35,38.57 75.75,41.86 75.75,41.86
             75.95,41.86 75.85,41.96 75.75,41.86 Z
           M 88.80,41.86
           C 88.80,41.86 85.89,40.37 85.89,40.37
             85.89,40.37 82.98,41.86 82.98,41.86
             82.88,41.86 82.78,41.86 82.78,41.76
             82.78,41.76 83.38,38.57 83.38,38.57
             83.38,38.57 81.07,36.27 81.07,36.27
             80.97,36.17 81.07,36.07 81.17,36.07
             81.17,36.07 84.38,35.57 84.38,35.57
             84.38,35.57 85.89,32.67 85.89,32.67
             85.89,32.57 86.09,32.57 86.09,32.67
             86.09,32.67 87.49,35.57 87.49,35.57
             87.49,35.57 90.70,36.07 90.70,36.07
             90.80,36.07 90.80,36.17 90.80,36.27
             90.80,36.27 88.39,38.57 88.39,38.57
             88.39,38.57 88.80,41.86 88.80,41.86
             89.00,41.86 88.90,41.96 88.80,41.86 Z
           M 101.94,41.86
           C 101.94,41.86 99.03,40.37 99.03,40.37
             99.03,40.37 96.12,41.86 96.12,41.86
             96.02,41.86 95.92,41.86 95.92,41.76
             95.92,41.76 96.52,38.57 96.52,38.57
             96.52,38.57 94.21,36.27 94.21,36.27
             94.11,36.17 94.21,36.07 94.31,36.07
             94.31,36.07 97.53,35.57 97.53,35.57
             97.53,35.57 99.03,32.67 99.03,32.67
             99.03,32.57 99.23,32.57 99.23,32.67
             99.23,32.67 100.64,35.57 100.64,35.57
             100.64,35.57 103.85,36.07 103.85,36.07
             103.95,36.07 103.95,36.17 103.95,36.27
             103.95,36.27 101.54,38.57 101.54,38.57
             101.54,38.57 101.94,41.86 101.94,41.86
             102.14,41.86 102.04,41.96 101.94,41.86 Z
           M 114.98,41.86
           C 114.98,41.86 112.07,40.37 112.07,40.37
             112.07,40.37 109.16,41.86 109.16,41.86
             109.06,41.86 108.96,41.86 108.96,41.76
             108.96,41.76 109.57,38.57 109.57,38.57
             109.57,38.57 107.26,36.27 107.26,36.27
             107.16,36.17 107.26,36.07 107.36,36.07
             107.36,36.07 110.57,35.57 110.57,35.57
             110.57,35.57 112.07,32.67 112.07,32.67
             112.07,32.57 112.27,32.57 112.27,32.67
             112.27,32.67 113.68,35.57 113.68,35.57
             113.68,35.57 116.89,36.07 116.89,36.07
             116.99,36.07 116.99,36.17 116.99,36.27
             116.99,36.27 114.58,38.57 114.58,38.57
             114.58,38.57 114.98,41.86 114.98,41.86
             115.18,41.86 115.08,41.96 114.98,41.86 Z" />
</svg>
