<?xml version="1.0" encoding="UTF-8" standalone="no"?>
<!DOCTYPE svg PUBLIC "-//W3C//DTD SVG 20010904//EN"
              "http://www.w3.org/TR/2001/REC-SVG-20010904/DTD/svg10.dtd">

<svg xmlns="http://www.w3.org/2000/svg"
     width="1.66667in" height="1.28889in"
     viewBox="0 0 150 116">
  <path id="Selection #1"
        fill="none" stroke="black" stroke-width="1"
        d="M 71.00,0.42
           C 58.81,2.16 52.56,2.48 41.00,8.27
             15.68,20.96 -0.03,46.82 0.00,75.00
             0.01,85.49 2.14,95.34 6.23,105.00
             7.36,107.66 10.00,113.46 12.39,114.98
             14.35,116.22 17.72,116.00 20.00,116.00
             20.00,116.00 130.00,116.00 130.00,116.00
             132.28,116.00 135.65,116.22 137.61,114.98
             140.02,113.45 142.62,107.67 143.77,105.00
             147.71,95.86 149.96,85.97 150.00,76.00
             150.15,42.02 128.89,12.75 96.00,3.30
             89.42,1.41 77.72,-0.37 71.00,0.42 Z" />
</svg>
